<svg id="Layer_2" data-name="Layer 2" xmlns="http://www.w3.org/2000/svg" viewBox="0 0 288 288"><defs><style>.cls-1{fill:#774f2c;stroke:#000;stroke-miterlimit:10;stroke-width:0.25px;}</style></defs><title>Artboard 1</title><ellipse class="cls-1" cx="111.91" cy="154.68" rx="10.33" ry="15.85"/><ellipse class="cls-1" cx="176.04" cy="154.68" rx="10.33" ry="15.85"/><path class="cls-1" d="M215.49,179.5c4.24-7.8,3.32-15.65.35-23.61-5.73-15.35-18.49-14.51-18.49-14.51s3.28-12.71-3.26-23.91c-6.36-10.88-21.14-9.13-21.14-9.13.64-15.3,1.74-21-18.34-40.09S119,53.92,119,53.92c4.56,1,5.72,14.35,4.13,14.85-5.25,4.53-11.44,18.43-5.41,26.3-21.63,5.79-34,28.25-24.77,41.25C74,144,62.25,161,75.36,181.59c-7-1.17-33.85,8.62-26,38.81,3.16,12.11,26.71,14.28,34.82,14.09,12.18-.28,125.17.75,133.26-1.23,5.33-1.31,22.32-4.06,23.31-23.94S215.49,179.5,215.49,179.5ZM91,154.68c0-14.86,9.36-26.9,20.9-26.9s20.9,12,20.9,26.9-9.36,26.9-20.9,26.9S91,169.53,91,154.68Zm50.77,56.49c-27.15,0-30.78-15.54-31.33-17.38h64.94C172.63,207.09,156.79,211.17,141.78,211.17ZM176,181.58c-11.54,0-20.9-12.05-20.9-26.9s9.36-26.9,20.9-26.9,20.89,12,20.89,26.9S187.58,181.58,176,181.58Z"/></svg>