<svg xmlns="http://www.w3.org/2000/svg" viewBox="0 0 288 288"><defs><style>.cls-1{fill:#231f20;}.cls-2{fill:none;stroke:#fff;stroke-miterlimit:10;stroke-width:0.5px;}.cls-3{fill:#fff;}</style></defs><g id="MRlogo"><circle class="cls-1" cx="144.33" cy="144.33" r="118.33"/><circle class="cls-2" cx="144.33" cy="144.33" r="118.33"/><polygon class="cls-3" points="81.55 159.41 95.44 159.19 95.44 147.36 81.55 147.56 81.55 159.41"/><polygon class="cls-3" points="95.44 160.88 81.55 161.1 81.55 174.98 75.05 174.98 75.05 182.83 101.13 182.83 101.13 174.98 95.44 174.98 95.44 160.88"/><path class="cls-3" d="M159.85,158.76V131h21.74q6.66,0,10.18,2.83,4.46,3.21,4.59,10.37a14.11,14.11,0,0,1-3.84,10c-2.6,2.94-6.49,4.44-11.68,4.53Zm48.47,50.15-20.55-39.34c11.64-4.49,21.55-12.95,21.72-25.39q-.37-12.69-9.11-19.54-7.23-6-18.67-6H159.78V85.45H166V77.6H139v7.85h7.13l-25.19,58.38L93.71,84.13h7.89V76.28H74.52v7.85h7v61.74l13.89-.2v-27h.25l19.16,44h11.57l19.16-44h.31v57.12H146v5.72l13.89-.2v-10.2h13.72l18.27,37.84h-4.49v7.85h26.08v-7.85Z"/><polygon class="cls-3" points="159.85 182.96 145.96 183.17 145.96 194.82 159.85 194.62 159.85 182.96"/><polygon class="cls-3" points="159.85 196.31 145.96 196.51 145.96 208.91 139.83 208.91 139.83 216.76 165.91 216.76 165.91 208.91 159.85 208.91 159.85 196.31"/></g></svg>